<?xml version="1.0" standalone="no"?>
<!DOCTYPE svg PUBLIC "-//W3C//DTD SVG 20010904//EN"
 "http://www.w3.org/TR/2001/REC-SVG-20010904/DTD/svg10.dtd">
<svg version="1.0" xmlns="http://www.w3.org/2000/svg"
 width="260.000000pt" height="260.000000pt" viewBox="0 0 260.000000 260.000000"
 preserveAspectRatio="xMidYMid meet">
<metadata>
Created by potrace 1.14, written by Peter Selinger 2001-2017
</metadata>
<g transform="translate(0.000000,260.000000) scale(0.100000,-0.100000)"
fill="#000000" stroke="none">
<path d="M1335 2589 c-22 -4 -62 -10 -88 -13 -126 -17 -343 -109 -469 -199
-161 -115 -319 -305 -414 -500 -82 -168 -187 -466 -211 -597 -2 -14 -10 -53
-18 -88 -14 -59 -18 -82 -30 -154 -3 -18 -10 -58 -15 -88 -5 -30 -12 -86 -16
-125 -3 -38 -8 -77 -9 -85 -9 -49 -18 -256 -17 -382 2 -207 12 -294 39 -336
14 -23 15 -22 90 58 100 106 211 188 347 254 158 78 241 103 621 191 424 98
594 197 785 455 31 41 64 88 75 105 97 153 176 365 204 546 21 128 14 333 -14
425 -7 23 -9 47 -6 53 9 14 157 57 326 95 57 13 78 41 77 104 -1 51 -41 127
-72 137 -21 7 -69 1 -135 -16 -57 -15 -214 -65 -252 -81 l-32 -14 -74 71 c-40
38 -86 77 -102 85 -17 8 -37 19 -45 26 -16 12 -99 41 -141 49 -117 23 -158 28
-254 29 -60 1 -128 -1 -150 -5z m632 -396 c26 -39 43 -80 43 -106 0 -18 -13
-28 -67 -51 -71 -30 -372 -182 -420 -212 -262 -164 -479 -325 -624 -463 -74
-71 -119 -91 -119 -53 0 20 74 107 200 237 235 242 436 403 678 544 64 37 266
130 284 131 4 0 15 -12 25 -27z"/>
</g>
</svg>
