<?xml version="1.0" standalone="no"?>
<!DOCTYPE svg PUBLIC "-//W3C//DTD SVG 20010904//EN"
 "http://www.w3.org/TR/2001/REC-SVG-20010904/DTD/svg10.dtd">
<svg version="1.0" xmlns="http://www.w3.org/2000/svg"
 width="346.000000pt" height="346.000000pt" viewBox="0 0 346.000000 346.000000"
 preserveAspectRatio="xMidYMid meet">
<metadata>
Created by potrace 1.14, written by Peter Selinger 2001-2017
</metadata>
<g transform="translate(0.000000,346.000000) scale(0.100000,-0.100000)"
fill="#000000" stroke="none">
<path d="M1412 3449 c-161 -21 -372 -93 -512 -174 -52 -30 -83 -42 -100 -39
-15 3 -49 -7 -85 -24 l-60 -29 -37 25 c-86 57 -249 34 -365 -51 -137 -102
-202 -280 -201 -554 1 -144 26 -313 47 -313 3 0 20 18 37 39 56 73 120 116
270 181 162 70 209 106 262 201 64 113 82 270 43 372 -6 16 -11 30 -11 31 0 2
29 15 64 30 46 20 66 34 68 48 2 15 21 27 68 45 356 136 725 166 1072 88 88
-19 230 -67 316 -106 34 -16 66 -29 70 -29 4 0 52 -25 106 -55 85 -47 95 -50
72 -26 -46 48 -175 136 -276 189 -133 69 -255 111 -395 136 -16 3 -41 8 -55
12 -42 10 -331 12 -398 3z m-778 -343 c9 -13 7 -19 -5 -26 -78 -45 -256 -201
-320 -283 -62 -78 -54 -36 11 54 71 100 166 199 235 245 53 36 63 38 79 10z"/>
<path d="M2710 2937 c0 -7 4 -17 9 -22 5 -6 19 -39 31 -74 17 -51 21 -84 19
-165 -7 -303 -6 -317 25 -376 39 -74 90 -135 151 -180 49 -36 146 -76 195 -82
24 -3 25 -6 25 -69 0 -42 5 -72 14 -83 28 -34 -16 -298 -81 -491 -105 -312
-280 -574 -529 -790 -79 -70 -96 -82 -181 -140 -98 -67 -101 -70 -68 -60 36
11 84 34 174 83 333 183 591 523 685 902 30 123 36 178 36 340 0 107 3 148 13
155 16 13 20 34 21 105 1 53 2 56 41 78 91 52 145 216 118 361 -34 187 -264
387 -565 490 -98 34 -133 38 -133 18z m407 -459 c49 -98 91 -218 99 -283 2
-16 6 -43 9 -58 4 -22 0 -30 -18 -36 -33 -13 -36 -8 -52 120 -8 59 -47 197
-79 275 -47 118 -21 106 41 -18z"/>
<path d="M79 2029 c0 -13 -2 -33 -4 -44 -30 -149 -21 -356 21 -535 91 -381
366 -746 689 -916 47 -25 75 -45 75 -56 0 -17 54 -63 100 -86 22 -11 25 -19
24 -60 -1 -62 25 -118 85 -184 177 -193 450 -178 781 43 95 64 195 153 186
167 -3 5 -21 9 -41 10 -90 3 -157 34 -302 139 -139 100 -178 117 -279 120
-137 4 -257 -41 -345 -129 l-49 -49 -56 40 c-44 32 -60 38 -75 31 -14 -8 -37
6 -126 79 -114 94 -166 145 -255 252 -251 300 -396 690 -413 1104 -2 48 -6 89
-9 92 -3 4 -6 -5 -7 -18z m1068 -1648 c76 -37 204 -77 315 -97 145 -27 82 -40
-87 -19 -133 17 -325 82 -325 110 0 12 20 35 30 35 4 0 33 -13 67 -29z"/>
</g>
</svg>
